<svg width="142" height="36" viewBox="0 0 142 36" fill="none"  xmlns="http://www.w3.org/2000/svg">
    <path fill-rule="evenodd" clip-rule="evenodd" d="M67.9548 12.1978L71.2832 25.216H68.7737L66.5487 15.8399L62.3835 25.216H60.2655L56.1182 15.894L53.8399 25.216H51.3838L54.6766 12.1978H56.848L61.3337 22.277L65.801 12.1978H67.9548Z" fill="#FFFFFE"/>
    <path fill-rule="evenodd" clip-rule="evenodd" d="M74.5566 20.4016C74.5566 22.1504 75.6424 23.647 77.7428 23.647C79.7718 23.647 80.8752 22.1863 80.8752 20.4555C80.8752 18.7425 79.7361 17.2461 77.6358 17.2461C75.6066 17.2461 74.5566 18.7245 74.5566 20.4016ZM80.7509 17.228V15.7134H83.1714V25.2156H80.7509V23.6829C80.1099 24.783 78.793 25.4139 77.1912 25.4139C73.8447 25.4139 71.9756 23.034 71.9756 20.275C71.9756 17.6246 73.7557 15.4971 76.8348 15.4971C78.5969 15.4971 80.0565 16.1101 80.7509 17.228Z" fill="#FFFFFE"/>
    <path fill-rule="evenodd" clip-rule="evenodd" d="M88.6339 25.2156H86.2129V15.7134H88.6339V17.8411C89.2743 16.3807 90.5738 15.4971 92.0155 15.4971C92.5141 15.4971 93.0657 15.5692 93.5285 15.7494L93.0123 17.5525C92.6031 17.4443 92.1402 17.3722 91.7308 17.3722C89.9863 17.3722 88.6339 18.7065 88.6339 20.6718V25.2156Z" fill="#FFFFFE"/>
    <path fill-rule="evenodd" clip-rule="evenodd" d="M94.8442 15.7132H97.2651V22.6552C97.2651 23.0877 97.3539 23.3941 97.71 23.3941C97.8703 23.3941 97.9415 23.3761 98.1726 23.34L98.5465 25.1251C98.0481 25.3235 97.5319 25.4136 96.9447 25.4136C95.93 25.4136 94.8442 25.107 94.8442 22.7812V15.7132ZM94.7373 13.2069C94.7373 12.5758 95.1647 11.9268 96.0366 11.9268C96.8913 11.9268 97.3539 12.5939 97.3539 13.2431C97.3539 13.874 96.9269 14.5051 96.0366 14.5051C95.1825 14.5051 94.7373 13.856 94.7373 13.2069Z" fill="#FFFFFE"/>
    <path fill-rule="evenodd" clip-rule="evenodd" d="M101.892 20.4016C101.892 22.1504 102.977 23.647 105.078 23.647C107.107 23.647 108.21 22.1863 108.21 20.4555C108.21 18.7425 107.071 17.2461 104.971 17.2461C102.942 17.2461 101.892 18.7245 101.892 20.4016ZM108.086 17.228V15.7134H110.506V25.2156H108.086V23.6829C107.445 24.783 106.128 25.4139 104.526 25.4139C101.18 25.4139 99.3105 23.034 99.3105 20.275C99.3105 17.6246 101.091 15.4971 104.17 15.4971C105.932 15.4971 107.392 16.1101 108.086 17.228Z" fill="#FFFFFE"/>
    <mask id="mask0" mask-type="alpha" maskUnits="userSpaceOnUse" x="0" y="0" width="142" height="36">
        <path d="M0.0107422 0.0654297H141.83V35.686H0.0107422V0.0654297Z" fill="white"/>
    </mask>
    <g mask="url(#mask0)">
        <path fill-rule="evenodd" clip-rule="evenodd" d="M115.826 13.3517V24.08H120.241C124.121 24.08 125.598 21.4294 125.598 18.671C125.598 15.5515 123.747 13.3517 120.241 13.3517H115.826ZM114.225 12.1978H120.027C124.904 12.1978 127.343 14.9205 127.307 18.7069C127.343 22.6376 124.655 25.216 120.454 25.216H114.225V12.1978Z" fill="#FFFFFE"/>
        <path fill-rule="evenodd" clip-rule="evenodd" d="M136.721 18.9772H131.364V24.1161H136.953C138.519 24.1161 140.175 23.5932 140.175 21.5918C140.175 19.2839 138.27 18.9772 136.721 18.9772ZM136.65 17.8775C139.195 17.8775 139.765 16.886 139.765 15.6236C139.765 13.7304 138.626 13.2977 136.65 13.2977H131.364V17.8775H136.65ZM137.202 25.216H129.833V12.1978H136.472C139.017 12.1978 141.438 12.6846 141.403 15.5696C141.403 17.6071 140.157 18.1659 138.839 18.3824C140.708 18.5445 141.83 19.7525 141.83 21.7C141.847 24.621 139.32 25.216 137.202 25.216Z" fill="#FFFFFE"/>
        <path fill-rule="evenodd" clip-rule="evenodd" d="M53.7757 0.241494C53.6423 0.124603 53.466 0.0654297 53.2521 0.0654297C52.7302 0.0654297 52.0562 0.422839 51.6942 0.614744C51.6316 0.648063 51.584 0.673554 51.5497 0.68903C50.8947 1.00001 50.2394 1.16715 49.6022 1.18627C48.9091 1.20812 48.3104 1.25 47.5352 1.33065C42.9234 1.8106 40.8767 5.3867 38.8975 8.84499C37.8214 10.7254 36.7084 12.6698 35.1832 14.1759C34.8857 14.4696 34.5475 14.7602 34.1786 15.0393C32.5997 16.2311 30.6177 17.0732 29.0677 17.6739C27.5823 18.2483 25.9618 18.7654 24.3949 19.2654C22.9607 19.7231 21.6062 20.1552 20.361 20.624C19.7995 20.8356 19.3214 20.9967 18.9 21.1389C17.7664 21.5218 16.9471 21.798 15.7528 22.6259C15.2871 22.9489 14.8194 23.2989 14.502 23.5618C13.4719 24.4155 12.5854 25.3612 12.0062 26.2244C11.3181 27.2484 10.7138 27.988 9.92031 28.7767C9.66886 29.0269 9.22059 29.1485 8.55018 29.1485C7.76527 29.1485 6.8132 28.9843 5.80506 28.8108C4.76672 28.6318 3.69297 28.4468 2.77164 28.4468C2.02376 28.4468 1.45148 28.5695 1.02226 28.8217C1.02226 28.8217 0.303677 29.2475 -0.000976562 29.7978L0.296667 29.9347C0.718509 30.129 1.15275 30.4997 1.5728 30.8587C2.00129 31.2249 2.44434 31.6034 2.89782 31.814C3.13777 31.9258 3.26358 32.034 3.306 32.0897C3.17964 32.2734 2.99613 32.5167 2.80256 32.7736C1.73941 34.1826 1.11968 35.0735 1.47484 35.558C1.47484 35.558 1.67866 35.686 2.0189 35.686C4.33787 35.686 5.58236 35.0755 7.15794 34.303C7.61429 34.0794 8.08592 33.848 8.62387 33.6118C9.5443 33.2075 10.5363 32.5618 11.5866 31.8781C12.9778 30.9727 14.4166 30.0367 15.8087 29.5838C16.8537 29.2443 18.0128 29.0793 19.3522 29.0793C20.8298 29.0793 22.3761 29.2798 23.8717 29.4739C24.9875 29.6188 26.1414 29.7683 27.2744 29.8371C27.7146 29.8639 28.1217 29.877 28.5186 29.877C29.0997 29.877 29.583 29.8489 30.1047 29.7916L30.2311 29.7475C31.0255 29.2532 31.3979 28.1915 31.7583 27.165C31.9902 26.5044 32.1848 25.9116 32.487 25.5345C32.4983 25.5205 32.5351 25.4917 32.5472 25.4839C32.5813 25.4619 32.6171 25.4803 32.6376 25.4992C32.6408 25.5019 32.6462 25.5079 32.6451 25.5278C32.455 29.5427 30.8647 32.0904 29.2519 34.3556L28.1744 35.5267C28.1744 35.5267 29.6824 35.5265 30.5402 35.1911C33.6707 34.242 36.0361 32.1525 37.7567 28.8208C38.1803 28.0011 38.5011 27.1883 38.8922 26.1907C38.9215 26.1161 39.1935 25.9782 39.1667 26.3639C39.1586 26.4786 39.1511 26.6055 39.1423 26.736H39.1421C39.1421 26.7364 39.1421 26.7366 39.1421 26.7369C39.1367 26.816 39.1317 26.8961 39.127 26.9764C39.082 27.5315 38.9508 28.7194 38.9508 28.7194L39.9185 28.1944C42.251 26.6969 44.048 23.6907 45.412 19.0045C45.98 17.0534 46.3952 15.1147 46.7617 13.4041C47.1995 11.3594 47.578 9.59331 48.0112 8.91017C48.6908 7.83922 49.728 7.11366 50.7308 6.41177C50.8685 6.31545 51.0054 6.21968 51.1409 6.12354C52.4029 5.22647 53.6578 4.18975 53.9335 2.25959L53.9393 2.21662C54.1386 0.776971 53.9686 0.410276 53.7757 0.241494Z" fill="#FFFFFE"/>
    </g>
</svg>
