<?xml version="1.0" standalone="no"?>
<!DOCTYPE svg PUBLIC "-//W3C//DTD SVG 20010904//EN"
 "http://www.w3.org/TR/2001/REC-SVG-20010904/DTD/svg10.dtd">
<svg version="1.0" xmlns="http://www.w3.org/2000/svg"
 width="400.000000pt" height="400.000000pt" viewBox="0 0 400.000000 400.000000"
 preserveAspectRatio="xMidYMid meet">
<metadata>
Created by potrace 1.11, written by Peter Selinger 2001-2013
</metadata>
<g transform="translate(0.000000,400.000000) scale(0.100000,-0.100000)"
fill="#000000" stroke="none">
<path d="M3765 3204 c-107 -45 -125 -49 -265 -59 -103 -7 -120 -9 -192 -33
-119 -39 -221 -119 -320 -252 -47 -63 -198 -303 -198 -315 0 -9 -103 -158
-145 -209 -91 -113 -171 -171 -339 -252 -122 -57 -194 -83 -650 -234 -170 -56
-338 -117 -375 -137 -135 -71 -240 -164 -349 -307 -159 -209 -154 -208 -482
-150 -14 2 -62 7 -107 10 -102 8 -162 -7 -211 -53 l-36 -34 28 -14 c15 -8 56
-37 89 -63 34 -27 73 -55 87 -62 14 -7 27 -14 29 -16 2 -2 -14 -27 -36 -56
-69 -92 -94 -138 -91 -166 3 -26 5 -27 68 -27 82 1 131 9 200 33 103 37 326
149 441 222 123 79 272 158 310 165 13 3 56 11 94 18 92 17 232 15 410 -8 17
-2 59 -7 95 -10 36 -4 68 -9 72 -12 4 -2 75 -6 158 -9 148 -4 175 -1 206 30
20 21 61 100 79 156 33 102 66 146 58 78 -18 -153 -51 -268 -113 -382 -41 -79
-105 -173 -148 -221 -51 -55 -50 -57 14 -50 98 10 233 63 332 130 131 89 261
268 347 480 17 43 35 35 29 -13 -2 -15 -6 -50 -9 -79 l-5 -52 56 32 c132 76
224 200 337 457 36 82 139 463 170 630 9 47 19 85 43 165 20 68 31 88 76 136
29 30 99 88 155 128 114 80 151 119 188 191 33 66 45 179 21 215 -21 32 -45
31 -121 -1z"/>
</g>
</svg>
