<svg version="1.1" xmlns="http://www.w3.org/2000/svg" xmlns:xlink="http://www.w3.org/1999/xlink" width="804" height="652"><defs></defs><g><g transform="translate(-106,-70) scale(1,1)"><rect fill="#C0C0C0" stroke="none" x="811" y="471" width="57" height="44" opacity="0.2"></rect></g><g transform="translate(-106,-70) scale(1,1)"><rect fill="#ffffff" stroke="none" x="804" y="464" width="57" height="44"></rect></g><g transform="translate(-106,-70) scale(1,1)"><path fill="none" stroke="#000000" d="M 804 464 L 861 464 L 861 508 L 804 508 L 804 464 Z Z" stroke-miterlimit="10"></path></g><g transform="translate(-106,-70) scale(1,1)"><path fill="none" stroke="#000000" d="M 804 489 L 861 489" stroke-miterlimit="10"></path></g><g transform="translate(-106,-70) scale(1,1)"><path fill="none" stroke="#000000" d="M 804 499 L 861 499" stroke-miterlimit="10"></path></g><g transform="translate(-106,-70) scale(1,1)"><g><path fill="none" stroke="none"></path><text fill="#000000" stroke="none" font-family="Arial" font-size="13px" font-style="normal" font-weight="bold" text-decoration="none" x="808.5" y="483.5">GWBUF</text></g></g><g transform="translate(-106,-70) scale(1,1)"><path fill="none" stroke="#000000" d="M 840 508 L 840 544 L 890 544 L 890 486 L 861 486" stroke-miterlimit="10"></path></g><g transform="translate(-106,-70) scale(1,1)"><path fill="none" stroke="#000000" d="M 871.1626748576241 481.790482243984 L 861 486 L 871.1626748576241 490.209517756016" stroke-miterlimit="10"></path></g><g transform="translate(-106,-70) scale(1,1)"><g><path fill="none" stroke="none"></path><text fill="#000000" stroke="none" font-family="Arial" font-size="13px" font-style="normal" font-weight="normal" text-decoration="none" x="843" y="525">+next</text></g></g><g transform="translate(-106,-70) scale(1,1)"><g><path fill="none" stroke="none"></path><text fill="#000000" stroke="none" font-family="Arial" font-size="13px" font-style="normal" font-weight="normal" text-decoration="none" x="807" y="545">0..1</text></g></g><g transform="translate(-106,-70) scale(1,1)"><rect fill="#C0C0C0" stroke="none" x="419" y="295" width="189" height="145" opacity="0.2"></rect></g><g transform="translate(-106,-70) scale(1,1)"><rect fill="#ffffff" stroke="none" x="412" y="288" width="189" height="145"></rect></g><g transform="translate(-106,-70) scale(1,1)"><path fill="none" stroke="#000000" d="M 412 288 L 601 288 L 601 433 L 412 433 L 412 288 Z Z" stroke-miterlimit="10"></path></g><g transform="translate(-106,-70) scale(1,1)"><path fill="none" stroke="#000000" d="M 412 313 L 601 313" stroke-miterlimit="10"></path></g><g transform="translate(-106,-70) scale(1,1)"><path fill="none" stroke="#000000" d="M 412 351 L 601 351" stroke-miterlimit="10"></path></g><g transform="translate(-106,-70) scale(1,1)"><g><path fill="none" stroke="none"></path><text fill="#000000" stroke="none" font-family="Arial" font-size="13px" font-style="normal" font-weight="bold" text-decoration="none" x="443.5" y="307.5">SessionCommandSet</text></g></g><g transform="translate(-106,-70) scale(1,1)"><g><path fill="none" stroke="none"></path><text fill="#000000" stroke="none" font-family="Arial" font-size="13px" font-style="normal" font-weight="normal" text-decoration="none" x="417" y="330.5">+failureSemantics</text></g></g><g transform="translate(-106,-70) scale(1,1)"><g><path fill="none" stroke="none"></path><text fill="#000000" stroke="none" font-family="Arial" font-size="13px" font-style="normal" font-weight="normal" text-decoration="none" x="417" y="345.5">+responseSemantics</text></g></g><g transform="translate(-106,-70) scale(1,1)"><g><path fill="none" stroke="none"></path><text fill="#000000" stroke="none" font-family="Arial" font-size="13px" font-style="normal" font-weight="normal" text-decoration="none" x="417" y="368.5">+appendCommand()</text></g></g><g transform="translate(-106,-70) scale(1,1)"><g><path fill="none" stroke="none"></path><text fill="#000000" stroke="none" font-family="Arial" font-size="13px" font-style="normal" font-weight="normal" text-decoration="none" x="417" y="383.5">+addBackendConnection()</text></g></g><g transform="translate(-106,-70) scale(1,1)"><g><path fill="none" stroke="none"></path><text fill="#000000" stroke="none" font-family="Arial" font-size="13px" font-style="normal" font-weight="normal" text-decoration="none" x="417" y="398.5">+handleResponse()</text></g></g><g transform="translate(-106,-70) scale(1,1)"><g><path fill="none" stroke="none"></path><text fill="#000000" stroke="none" font-family="Arial" font-size="13px" font-style="normal" font-weight="normal" text-decoration="none" x="417" y="413.5">+removeBackendConnection()</text></g></g><g transform="translate(-106,-70) scale(1,1)"><g><path fill="none" stroke="none"></path><text fill="#000000" stroke="none" font-family="Arial" font-size="13px" font-style="normal" font-weight="normal" text-decoration="none" x="417" y="428.5">+isBackendUptodate()</text></g></g><g transform="translate(-106,-70) scale(1,1)"><rect fill="#C0C0C0" stroke="none" x="779" y="331" width="123" height="57" opacity="0.2"></rect></g><g transform="translate(-106,-70) scale(1,1)"><rect fill="#ffffff" stroke="none" x="772" y="324" width="123" height="57"></rect></g><g transform="translate(-106,-70) scale(1,1)"><path fill="none" stroke="#000000" d="M 772 324 L 895 324 L 895 381 L 772 381 L 772 324 Z Z" stroke-miterlimit="10"></path></g><g transform="translate(-106,-70) scale(1,1)"><path fill="none" stroke="#000000" d="M 772 349 L 895 349" stroke-miterlimit="10"></path></g><g transform="translate(-106,-70) scale(1,1)"><path fill="none" stroke="#000000" d="M 772 372 L 895 372" stroke-miterlimit="10"></path></g><g transform="translate(-106,-70) scale(1,1)"><g><path fill="none" stroke="none"></path><text fill="#000000" stroke="none" font-family="Arial" font-size="13px" font-style="normal" font-weight="bold" text-decoration="none" x="780.5" y="343.5">SessionCommand</text></g></g><g transform="translate(-106,-70) scale(1,1)"><g><path fill="none" stroke="none"></path><text fill="#000000" stroke="none" font-family="Arial" font-size="13px" font-style="normal" font-weight="normal" text-decoration="none" x="777" y="366.5">+responseSent</text></g></g><g transform="translate(-106,-70) scale(1,1)"><path fill="none" stroke="#000000" d="M 771 353.5168195718654 L 602 357.651376146789" stroke-miterlimit="10"></path></g><g transform="translate(-106,-70) scale(1,1)"><path fill="#FFFFFF" stroke="none" d="M 612.0566805615167 353.19456382365803 L 602 357.651376146789 L 612.262589237437 361.61108095190275 L 623.9934191460244 357.1133108465805"></path></g><g transform="translate(-106,-70) scale(1,1)"><path fill="none" stroke="#000000" d="M 612.0566805615167 353.19456382365803 L 602 357.651376146789 L 612.262589237437 361.61108095190275 L 623.9934191460244 357.1133108465805 L 612.0566805615167 353.19456382365803" stroke-miterlimit="10"></path></g><g transform="translate(-106,-70) scale(1,1)"><g><path fill="none" stroke="none"></path><text fill="#000000" stroke="none" font-family="Arial" font-size="13px" font-style="normal" font-weight="normal" text-decoration="none" x="639" y="376">+commands</text></g></g><g transform="translate(-106,-70) scale(1,1)"><g><path fill="none" stroke="none"></path><text fill="#000000" stroke="none" font-family="Arial" font-size="13px" font-style="normal" font-weight="normal" text-decoration="none" x="640" y="395.5168195718654">{ordered}</text></g></g><g transform="translate(-106,-70) scale(1,1)"><g><path fill="none" stroke="none"></path><text fill="#000000" stroke="none" font-family="Arial" font-size="13px" font-style="normal" font-weight="normal" text-decoration="none" x="747" y="348.5168195718654">*</text></g></g><g transform="translate(-106,-70) scale(1,1)"><g><path fill="none" stroke="none"></path><text fill="#000000" stroke="none" font-family="Arial" font-size="13px" font-style="normal" font-weight="normal" text-decoration="none" x="620" y="350.651376146789">1</text></g></g><g transform="translate(-106,-70) scale(1,1)"><path fill="none" stroke="#000000" d="M 832.1716417910447 463 L 832.776119402985 382" stroke-miterlimit="10"></path></g><g transform="translate(-106,-70) scale(1,1)"><path fill="#FFFFFF" stroke="none" d="M 836.9096812009343 392.19380531806127 L 832.776119402985 382 L 828.490880114272 392.13097844428023 L 832.6119448700224 403.99938741698793"></path></g><g transform="translate(-106,-70) scale(1,1)"><path fill="none" stroke="#000000" d="M 836.9096812009343 392.19380531806127 L 832.776119402985 382 L 828.490880114272 392.13097844428023 L 832.6119448700224 403.99938741698793 L 836.9096812009343 392.19380531806127" stroke-miterlimit="10"></path></g><g transform="translate(-106,-70) scale(1,1)"><g><path fill="none" stroke="none"></path><text fill="#000000" stroke="none" font-family="Arial" font-size="13px" font-style="normal" font-weight="normal" text-decoration="none" x="839" y="412">+buffer</text></g></g><g transform="translate(-106,-70) scale(1,1)"><g><path fill="none" stroke="none"></path><text fill="#000000" stroke="none" font-family="Arial" font-size="13px" font-style="normal" font-weight="normal" text-decoration="none" x="841.1716417910447" y="448">1</text></g></g><g transform="translate(-106,-70) scale(1,1)"><rect fill="#C0C0C0" stroke="none" x="171" y="463" width="133" height="57" opacity="0.2"></rect></g><g transform="translate(-106,-70) scale(1,1)"><rect fill="#ffffff" stroke="none" x="164" y="456" width="133" height="57"></rect></g><g transform="translate(-106,-70) scale(1,1)"><path fill="none" stroke="#000000" d="M 164 456 L 297 456 L 297 513 L 164 513 L 164 456 Z Z" stroke-miterlimit="10"></path></g><g transform="translate(-106,-70) scale(1,1)"><path fill="none" stroke="#000000" d="M 164 481 L 297 481" stroke-miterlimit="10"></path></g><g transform="translate(-106,-70) scale(1,1)"><path fill="none" stroke="#000000" d="M 164 491 L 297 491" stroke-miterlimit="10"></path></g><g transform="translate(-106,-70) scale(1,1)"><g><path fill="none" stroke="none"></path><text fill="#000000" stroke="none" font-family="Arial" font-size="13px" font-style="normal" font-weight="bold" text-decoration="none" x="172.5" y="475.5">BackendConnection</text></g></g><g transform="translate(-106,-70) scale(1,1)"><rect fill="#C0C0C0" stroke="none" x="211" y="587" width="50" height="44" opacity="0.2"></rect></g><g transform="translate(-106,-70) scale(1,1)"><rect fill="#ffffff" stroke="none" x="204" y="580" width="50" height="44"></rect></g><g transform="translate(-106,-70) scale(1,1)"><path fill="none" stroke="#000000" d="M 204 580 L 254 580 L 254 624 L 204 624 L 204 580 Z Z" stroke-miterlimit="10"></path></g><g transform="translate(-106,-70) scale(1,1)"><path fill="none" stroke="#000000" d="M 204 605 L 254 605" stroke-miterlimit="10"></path></g><g transform="translate(-106,-70) scale(1,1)"><path fill="none" stroke="#000000" d="M 204 615 L 254 615" stroke-miterlimit="10"></path></g><g transform="translate(-106,-70) scale(1,1)"><g><path fill="none" stroke="none"></path><text fill="#000000" stroke="none" font-family="Arial" font-size="13px" font-style="normal" font-weight="bold" text-decoration="none" x="215.5" y="599.5">DCB</text></g></g><g transform="translate(-106,-70) scale(1,1)"><path fill="none" stroke="#000000" d="M 229.74576271186442 514 L 229.1949152542373 579" stroke-miterlimit="10"></path></g><g transform="translate(-106,-70) scale(1,1)"><path fill="none" stroke="#000000" d="M 225.0716699212931 568.8020174581267 L 229.1949152542373 579 L 233.49040312859736 568.8733626547987" stroke-miterlimit="10"></path></g><g transform="translate(-106,-70) scale(1,1)"><g><path fill="none" stroke="none"></path><text fill="#000000" stroke="none" font-family="Arial" font-size="13px" font-style="normal" font-weight="normal" text-decoration="none" x="229" y="552">+dcb</text></g></g><g transform="translate(-106,-70) scale(1,1)"><rect fill="#C0C0C0" stroke="none" x="123" y="675" width="50" height="44" opacity="0.2"></rect></g><g transform="translate(-106,-70) scale(1,1)"><rect fill="#ffffff" stroke="none" x="116" y="668" width="50" height="44"></rect></g><g transform="translate(-106,-70) scale(1,1)"><path fill="none" stroke="#000000" d="M 116 668 L 166 668 L 166 712 L 116 712 L 116 668 Z Z" stroke-miterlimit="10"></path></g><g transform="translate(-106,-70) scale(1,1)"><path fill="none" stroke="#000000" d="M 116 693 L 166 693" stroke-miterlimit="10"></path></g><g transform="translate(-106,-70) scale(1,1)"><path fill="none" stroke="#000000" d="M 116 703 L 166 703" stroke-miterlimit="10"></path></g><g transform="translate(-106,-70) scale(1,1)"><g><path fill="none" stroke="none"></path><text fill="#000000" stroke="none" font-family="Arial" font-size="13px" font-style="normal" font-weight="bold" text-decoration="none" x="123" y="687.5">server</text></g></g><g transform="translate(-106,-70) scale(1,1)"><path fill="none" stroke="#000000" d="M 140.7325581395349 667 L 140 604 L 203 602.5842696629213" stroke-miterlimit="10"></path></g><g transform="translate(-106,-70) scale(1,1)"><rect fill="#C0C0C0" stroke="none" x="263" y="131" width="175" height="72" opacity="0.2"></rect></g><g transform="translate(-106,-70) scale(1,1)"><rect fill="#ffffff" stroke="none" x="256" y="124" width="175" height="72"></rect></g><g transform="translate(-106,-70) scale(1,1)"><path fill="none" stroke="#000000" d="M 256 124 L 431 124 L 431 196 L 256 196 L 256 124 Z Z" stroke-miterlimit="10"></path></g><g transform="translate(-106,-70) scale(1,1)"><path fill="none" stroke="#000000" d="M 256 149 L 431 149" stroke-miterlimit="10"></path></g><g transform="translate(-106,-70) scale(1,1)"><path fill="none" stroke="#000000" d="M 256 187 L 431 187" stroke-miterlimit="10"></path></g><g transform="translate(-106,-70) scale(1,1)"><g><path fill="none" stroke="none"></path><text fill="#000000" stroke="none" font-family="Arial" font-size="13px" font-style="normal" font-weight="bold" text-decoration="none" x="267" y="143.5">SessionCommandPosition</text></g></g><g transform="translate(-106,-70) scale(1,1)"><g><path fill="none" stroke="none"></path><text fill="#000000" stroke="none" font-family="Arial" font-size="13px" font-style="normal" font-weight="normal" text-decoration="none" x="261" y="166.5">+position</text></g></g><g transform="translate(-106,-70) scale(1,1)"><g><path fill="none" stroke="none"></path><text fill="#000000" stroke="none" font-family="Arial" font-size="13px" font-style="normal" font-weight="normal" text-decoration="none" x="261" y="181.5">+responseAwaited: boolean</text></g></g><g transform="translate(-106,-70) scale(1,1)"><path fill="none" stroke="#000000" d="M 494 288 L 494 220 L 196 220 L 196 456" stroke-miterlimit="10"></path></g><g transform="translate(-106,-70) scale(1,1)"><g><path fill="none" stroke="none"></path><text fill="#000000" stroke="none" font-family="Arial" font-size="13px" font-style="normal" font-weight="normal" text-decoration="none" x="406" y="265">+connections</text></g></g><g transform="translate(-106,-70) scale(1,1)"><g><path fill="none" stroke="none"></path><text fill="#000000" stroke="none" font-family="Arial" font-size="13px" font-style="normal" font-weight="normal" text-decoration="none" x="503" y="273">1</text></g></g><g transform="translate(-106,-70) scale(1,1)"><g><path fill="none" stroke="none"></path><text fill="#000000" stroke="none" font-family="Arial" font-size="13px" font-style="normal" font-weight="normal" text-decoration="none" x="181" y="441">*</text></g></g><g transform="translate(-106,-70) scale(1,1)"><path fill="none" stroke="#000000" d="M 344.23333333333335 197 L 345 220" stroke-miterlimit="10" stroke-dasharray="3"></path></g><g transform="translate(-106,-70) scale(1,1)"><rect fill="#C0C0C0" stroke="none" x="807" y="143" width="100" height="44" opacity="0.2"></rect></g><g transform="translate(-106,-70) scale(1,1)"><rect fill="#ffffff" stroke="none" x="800" y="136" width="100" height="44"></rect></g><g transform="translate(-106,-70) scale(1,1)"><path fill="none" stroke="#000000" d="M 800 136 L 900 136 L 900 180 L 800 180 L 800 136 Z Z" stroke-miterlimit="10"></path></g><g transform="translate(-106,-70) scale(1,1)"><path fill="none" stroke="#000000" d="M 800 161 L 900 161" stroke-miterlimit="10"></path></g><g transform="translate(-106,-70) scale(1,1)"><path fill="none" stroke="#000000" d="M 800 171 L 900 171" stroke-miterlimit="10"></path></g><g transform="translate(-106,-70) scale(1,1)"><g><path fill="none" stroke="none"></path><text fill="#000000" stroke="none" font-family="Arial" font-size="13px" font-style="normal" font-weight="bold" text-decoration="none" x="807.5" y="155.5">RouterSession</text></g></g><g transform="translate(-106,-70) scale(1,1)"><path fill="none" stroke="#000000" d="M 552 288 L 552 80 L 820 80 L 820 136" stroke-miterlimit="10"></path></g><g transform="translate(-106,-70) scale(1,1)"><g><path fill="none" stroke="none"></path><text fill="#000000" stroke="none" font-family="Arial" font-size="13px" font-style="normal" font-weight="normal" text-decoration="none" x="561" y="273">1</text></g></g><g transform="translate(-106,-70) scale(1,1)"><g><path fill="none" stroke="none"></path><text fill="#000000" stroke="none" font-family="Arial" font-size="13px" font-style="normal" font-weight="normal" text-decoration="none" x="804" y="121">1</text></g></g></g></svg>