<svg width="43" height="42" viewBox="0 0 43 42" fill="#E5E1E5" xmlns="http://www.w3.org/2000/svg">
    <path fill-rule="evenodd" clip-rule="evenodd" d="M42.0847 20.8282C42.0809 23.5737 41.5211 26.2896 40.4427 28.8166C39.3905 31.2769 37.8724 33.5185 35.9674 35.4155C33.0177 38.3538 29.2338 40.3434 25.1196 41.1326C21.0051 41.9181 16.744 41.4661 12.8923 39.8284C10.386 38.8132 8.10889 37.3126 6.2001 35.4155C4.27247 33.5222 2.72807 31.2805 1.65339 28.8166C0.571201 26.2896 0.0113509 23.5738 0 20.8282V20.7393C0.00375735 17.9752 0.563641 15.2408 1.64204 12.6916C2.71672 10.2276 4.25737 7.98973 6.1774 6.09268C9.13085 3.15442 12.911 1.16479 17.0252 0.375612C21.1435 -0.409893 25.4046 0.0421475 29.2525 1.67984C31.7588 2.69875 34.0359 4.19932 35.9485 6.09268C39.8526 9.99426 42.0357 15.2593 42.0207 20.7389V20.8278L42.0847 20.8282ZM2.88615 21.1106C3.05517 21.3896 4.21267 22.4052 7.98633 23.2944L9.65083 23.6366C9.59204 22.7959 9.59204 21.9514 9.59204 21.1107H9.58836C9.50753 16.174 10.5253 11.2823 12.5573 6.79578C12.9247 6.03315 13.351 5.30401 13.836 4.61202C11.7012 5.5123 9.76107 6.82549 8.12225 8.48098C4.76747 11.7919 2.8788 16.3379 2.88247 21.0807L2.88615 21.1106ZM14.382 36.8962H14.3858L14.4125 36.8668L14.3395 36.8379C13.8578 36.1744 13.4301 35.4733 13.0599 34.7445C11.7264 32 10.835 29.0799 10.4121 26.0794C9.26907 25.9293 8.13758 25.7061 7.0212 25.4171C5.79822 25.128 4.60568 24.7255 3.45897 24.2131C4.15618 27.5906 5.89732 30.6826 8.46139 33.0905C10.1533 34.6902 12.147 35.9641 14.3395 36.8379L14.382 36.8962ZM29.2851 23.8047C29.3455 22.8059 29.3984 21.8034 29.3984 20.8047L29.3946 20.801C29.4928 16.3197 28.5565 11.8717 26.6575 7.79461C25.0529 4.72408 22.9954 2.88251 21.002 2.88251C19.0086 2.88251 16.9322 4.67208 15.3654 7.75374C13.5154 11.8453 12.6018 16.2859 12.6887 20.7602C12.6887 21.6503 12.7367 22.5435 12.7845 23.4342L12.8019 23.7601V23.7638C15.524 24.0608 18.2611 24.2093 21.0021 24.213C23.7619 24.2168 26.5178 24.0683 29.2626 23.7712L29.2851 23.8047ZM28.8251 26.5191C28.4403 29.0065 27.7007 31.4263 26.6286 33.7035C25.1008 36.7386 23.1061 38.6294 21.1338 38.6257C19.1615 38.6257 17.1368 36.8174 15.5568 33.7035C14.4437 31.4375 13.6667 29.014 13.2595 26.5191C15.8444 26.7968 18.4442 26.9281 21.0442 26.913C23.6403 26.9281 26.2402 26.7967 28.8251 26.5191ZM27.6721 4.07651C28.156 4.78688 28.5846 5.53428 28.954 6.31124C31.0265 10.7658 32.0498 15.6349 31.9427 20.548C31.9427 21.3841 31.9427 22.224 31.8836 23.0601L33.498 22.7197C37.292 21.8207 38.4741 20.8254 38.6256 20.5479H38.6219C38.6256 17.0256 37.595 13.5811 35.6555 10.6435C33.7123 7.70576 30.9489 5.40823 27.7128 4.03552L27.6721 4.07651ZM35.6796 25.3751C36.8945 25.1084 38.0751 24.721 39.202 24.2131C38.4915 27.5602 36.7645 30.6259 34.2392 33.0376C32.5276 34.6891 30.4913 36.0046 28.2486 36.8962C28.7491 36.1946 29.1923 35.4565 29.5743 34.6928C30.9803 31.9706 31.8934 29.0474 32.2831 26.0365C33.4293 25.8867 34.564 25.6674 35.6796 25.3751Z" fill="#E5E1E5"/>
    <path fill-rule="evenodd" clip-rule="evenodd" d="M35.5 42C39.0899 42 42 39.0899 42 35.5C42 31.9101 39.0899 29 35.5 29C31.9101 29 29 31.9101 29 35.5C29 39.0899 31.9101 42 35.5 42Z" fill="#EB5757"/>
    <path d="M33.2065 33.0785L37.8493 37.7214" stroke="white" stroke-width="1.5" stroke-linecap="round"/>
    <path d="M37.8493 33.0785L33.2064 37.7214" stroke="white" stroke-width="1.5" stroke-linecap="round"/>
</svg>
