<?xml version="1.0" encoding="UTF-8" standalone="no"?>
<!DOCTYPE svg PUBLIC "-//W3C//DTD SVG 1.1//EN"
 "http://www.w3.org/Graphics/SVG/1.1/DTD/svg11.dtd">
<!-- Generated by graphviz version 2.43.0 (0)
 -->
<!-- Title: monitor_lock_flow Pages: 1 -->
<svg width="714pt" height="618pt"
 viewBox="0.00 0.00 714.17 618.00" xmlns="http://www.w3.org/2000/svg" xmlns:xlink="http://www.w3.org/1999/xlink">
<g id="graph0" class="graph" transform="scale(1 1) rotate(0) translate(4 614)">
<title>monitor_lock_flow</title>
<polygon fill="white" stroke="transparent" points="-4,4 -4,-614 710.17,-614 710.17,4 -4,4"/>
<!-- monitor_tick_start -->
<g id="node1" class="node">
<title>monitor_tick_start</title>
<ellipse fill="none" stroke="black" cx="379.79" cy="-592" rx="92.88" ry="18"/>
<text text-anchor="middle" x="379.79" y="-588.3" font-family="Times,serif" font-size="14.00">Monitor tick start</text>
</g>
<!-- check_lock_status_on_all_servers -->
<g id="node2" class="node">
<title>check_lock_status_on_all_servers</title>
<polygon fill="none" stroke="black" points="501.29,-537 258.29,-537 258.29,-501 501.29,-501 501.29,-537"/>
<text text-anchor="middle" x="379.79" y="-515.3" font-family="Times,serif" font-size="14.00">Check lock status on all servers</text>
</g>
<!-- monitor_tick_start&#45;&gt;check_lock_status_on_all_servers -->
<g id="edge1" class="edge">
<title>monitor_tick_start&#45;&gt;check_lock_status_on_all_servers</title>
<path fill="none" stroke="black" d="M379.79,-573.81C379.79,-565.79 379.79,-556.05 379.79,-547.07"/>
<polygon fill="black" stroke="black" points="383.29,-547.03 379.79,-537.03 376.29,-547.03 383.29,-547.03"/>
</g>
<!-- have_majority -->
<g id="node4" class="node">
<title>have_majority</title>
<polygon fill="none" stroke="black" points="379.79,-464 271.36,-446 379.79,-428 488.21,-446 379.79,-464"/>
<text text-anchor="middle" x="379.79" y="-442.3" font-family="Times,serif" font-size="14.00">Have majority</text>
</g>
<!-- check_lock_status_on_all_servers&#45;&gt;have_majority -->
<g id="edge2" class="edge">
<title>check_lock_status_on_all_servers&#45;&gt;have_majority</title>
<path fill="none" stroke="black" d="M379.79,-500.81C379.79,-492.79 379.79,-483.05 379.79,-474.07"/>
<polygon fill="black" stroke="black" points="383.29,-474.03 379.79,-464.03 376.29,-474.03 383.29,-474.03"/>
</g>
<!-- release_all_acquired_locks -->
<g id="node3" class="node">
<title>release_all_acquired_locks</title>
<polygon fill="none" stroke="black" points="381.29,-109 180.29,-109 180.29,-73 381.29,-73 381.29,-109"/>
<text text-anchor="middle" x="280.79" y="-87.3" font-family="Times,serif" font-size="14.00">Release all acquired locks</text>
</g>
<!-- continue_as_secondary_maxscale -->
<g id="node10" class="node">
<title>continue_as_secondary_maxscale</title>
<ellipse fill="none" stroke="black" cx="163.79" cy="-18" rx="163.57" ry="18"/>
<text text-anchor="middle" x="163.79" y="-14.3" font-family="Times,serif" font-size="14.00">Continue as secondary MaxScale</text>
</g>
<!-- release_all_acquired_locks&#45;&gt;continue_as_secondary_maxscale -->
<g id="edge11" class="edge">
<title>release_all_acquired_locks&#45;&gt;continue_as_secondary_maxscale</title>
<path fill="none" stroke="black" d="M252.76,-72.99C236.99,-63.42 217.11,-51.36 200.15,-41.07"/>
<polygon fill="black" stroke="black" points="201.95,-38.06 191.58,-35.87 198.31,-44.05 201.95,-38.06"/>
</g>
<!-- can_get_majority -->
<g id="node5" class="node">
<title>can_get_majority</title>
<polygon fill="none" stroke="black" points="301.79,-377 175.94,-359 301.79,-341 427.63,-359 301.79,-377"/>
<text text-anchor="middle" x="301.79" y="-355.3" font-family="Times,serif" font-size="14.00">Can get majority</text>
</g>
<!-- have_majority&#45;&gt;can_get_majority -->
<g id="edge3" class="edge">
<title>have_majority&#45;&gt;can_get_majority</title>
<path fill="none" stroke="black" d="M366.2,-430.19C354.16,-417.07 336.39,-397.71 322.56,-382.64"/>
<polygon fill="black" stroke="black" points="325.08,-380.21 315.74,-375.21 319.92,-384.94 325.08,-380.21"/>
<text text-anchor="middle" x="356.29" y="-398.8" font-family="Times,serif" font-size="14.00">No</text>
</g>
<!-- acquire_any_remaining_free_locks -->
<g id="node8" class="node">
<title>acquire_any_remaining_free_locks</title>
<polygon fill="none" stroke="black" points="610.79,-323 358.79,-323 358.79,-287 610.79,-287 610.79,-323"/>
<text text-anchor="middle" x="484.79" y="-301.3" font-family="Times,serif" font-size="14.00">Acquire any remaining free locks</text>
</g>
<!-- have_majority&#45;&gt;acquire_any_remaining_free_locks -->
<g id="edge4" class="edge">
<title>have_majority&#45;&gt;acquire_any_remaining_free_locks</title>
<path fill="none" stroke="black" d="M393.15,-429.97C405.01,-416.43 422.6,-395.82 436.79,-377 447.81,-362.38 459.32,-345.41 468.31,-331.73"/>
<polygon fill="black" stroke="black" points="471.3,-333.56 473.82,-323.27 465.43,-329.74 471.3,-333.56"/>
<text text-anchor="middle" x="434.29" y="-398.8" font-family="Times,serif" font-size="14.00">Yes</text>
</g>
<!-- acquire_all_free_locks -->
<g id="node6" class="node">
<title>acquire_all_free_locks</title>
<polygon fill="none" stroke="black" points="385.29,-269 218.29,-269 218.29,-233 385.29,-233 385.29,-269"/>
<text text-anchor="middle" x="301.79" y="-247.3" font-family="Times,serif" font-size="14.00">Acquire all free locks</text>
</g>
<!-- can_get_majority&#45;&gt;acquire_all_free_locks -->
<g id="edge7" class="edge">
<title>can_get_majority&#45;&gt;acquire_all_free_locks</title>
<path fill="none" stroke="black" d="M301.79,-340.97C301.79,-324.38 301.79,-298.88 301.79,-279.43"/>
<polygon fill="black" stroke="black" points="305.29,-279.34 301.79,-269.34 298.29,-279.34 305.29,-279.34"/>
<text text-anchor="middle" x="314.29" y="-301.3" font-family="Times,serif" font-size="14.00">Yes</text>
</g>
<!-- can_get_majority&#45;&gt;continue_as_secondary_maxscale -->
<g id="edge6" class="edge">
<title>can_get_majority&#45;&gt;continue_as_secondary_maxscale</title>
<path fill="none" stroke="black" d="M258,-347.16C213.72,-333.27 151.79,-304.46 151.79,-252 151.79,-252 151.79,-252 151.79,-90 151.79,-75.3 154.32,-59.13 157.05,-45.94"/>
<polygon fill="black" stroke="black" points="160.49,-46.6 159.25,-36.08 153.66,-45.08 160.49,-46.6"/>
<text text-anchor="middle" x="162.29" y="-174.3" font-family="Times,serif" font-size="14.00">No</text>
</g>
<!-- got_majority -->
<g id="node7" class="node">
<title>got_majority</title>
<polygon fill="none" stroke="black" points="301.79,-196 203.59,-178 301.79,-160 399.99,-178 301.79,-196"/>
<text text-anchor="middle" x="301.79" y="-174.3" font-family="Times,serif" font-size="14.00">Got majority</text>
</g>
<!-- acquire_all_free_locks&#45;&gt;got_majority -->
<g id="edge8" class="edge">
<title>acquire_all_free_locks&#45;&gt;got_majority</title>
<path fill="none" stroke="black" d="M301.79,-232.81C301.79,-224.79 301.79,-215.05 301.79,-206.07"/>
<polygon fill="black" stroke="black" points="305.29,-206.03 301.79,-196.03 298.29,-206.03 305.29,-206.03"/>
</g>
<!-- got_majority&#45;&gt;release_all_acquired_locks -->
<g id="edge10" class="edge">
<title>got_majority&#45;&gt;release_all_acquired_locks</title>
<path fill="none" stroke="black" d="M297.74,-160.61C294.83,-148.85 290.85,-132.73 287.47,-119.07"/>
<polygon fill="black" stroke="black" points="290.83,-118.08 285.04,-109.21 284.04,-119.76 290.83,-118.08"/>
<text text-anchor="middle" x="303.29" y="-130.8" font-family="Times,serif" font-size="14.00">No</text>
</g>
<!-- continue_as_primary_maxscale -->
<g id="node9" class="node">
<title>continue_as_primary_maxscale</title>
<ellipse fill="none" stroke="black" cx="552.79" cy="-91" rx="153.27" ry="18"/>
<text text-anchor="middle" x="552.79" y="-87.3" font-family="Times,serif" font-size="14.00">Continue as primary MaxScale</text>
</g>
<!-- got_majority&#45;&gt;continue_as_primary_maxscale -->
<g id="edge9" class="edge">
<title>got_majority&#45;&gt;continue_as_primary_maxscale</title>
<path fill="none" stroke="black" d="M334.6,-165.89C375.34,-152.09 445.51,-128.33 495.27,-111.48"/>
<polygon fill="black" stroke="black" points="496.58,-114.73 504.93,-108.21 494.34,-108.1 496.58,-114.73"/>
<text text-anchor="middle" x="455.29" y="-130.8" font-family="Times,serif" font-size="14.00">Yes</text>
</g>
<!-- acquire_any_remaining_free_locks&#45;&gt;continue_as_primary_maxscale -->
<g id="edge5" class="edge">
<title>acquire_any_remaining_free_locks&#45;&gt;continue_as_primary_maxscale</title>
<path fill="none" stroke="black" d="M490.35,-286.65C502.21,-249.66 530.06,-162.84 544.21,-118.73"/>
<polygon fill="black" stroke="black" points="547.61,-119.59 547.33,-109 540.95,-117.45 547.61,-119.59"/>
</g>
</g>
</svg>
