<?xml version="1.0" encoding="UTF-8" standalone="no"?>
<!DOCTYPE svg PUBLIC "-//W3C//DTD SVG 1.1//EN"
 "http://www.w3.org/Graphics/SVG/1.1/DTD/svg11.dtd">
<!-- Generated by graphviz version 2.43.0 (0)
 -->
<!-- Title: monitor_lock_flow Pages: 1 -->
<svg width="558pt" height="612pt"
 viewBox="0.00 0.00 558.33 612.00" xmlns="http://www.w3.org/2000/svg" xmlns:xlink="http://www.w3.org/1999/xlink">
<g id="graph0" class="graph" transform="scale(1 1) rotate(0) translate(4 608)">
<title>monitor_lock_flow</title>
<polygon fill="white" stroke="transparent" points="-4,4 -4,-608 554.33,-608 554.33,4 -4,4"/>
<!-- monitor_tick_start -->
<g id="node1" class="node">
<title>monitor_tick_start</title>
<ellipse fill="none" stroke="black" cx="300.07" cy="-586" rx="70.21" ry="18"/>
<text text-anchor="middle" x="300.07" y="-583.2" font-family="Times,serif" font-size="11.00">Monitor tick start</text>
</g>
<!-- check_lock_status_on_all_servers -->
<g id="node2" class="node">
<title>check_lock_status_on_all_servers</title>
<polygon fill="none" stroke="black" points="398.57,-531 201.57,-531 201.57,-495 398.57,-495 398.57,-531"/>
<text text-anchor="middle" x="300.07" y="-510.2" font-family="Times,serif" font-size="11.00">Check lock status on all servers</text>
</g>
<!-- monitor_tick_start&#45;&gt;check_lock_status_on_all_servers -->
<g id="edge1" class="edge">
<title>monitor_tick_start&#45;&gt;check_lock_status_on_all_servers</title>
<path fill="none" stroke="black" d="M300.07,-567.81C300.07,-559.79 300.07,-550.05 300.07,-541.07"/>
<polygon fill="black" stroke="black" points="303.57,-541.03 300.07,-531.03 296.57,-541.03 303.57,-541.03"/>
</g>
<!-- have_majority -->
<g id="node4" class="node">
<title>have_majority</title>
<polygon fill="none" stroke="black" points="300.07,-458 217.59,-440 300.07,-422 382.55,-440 300.07,-458"/>
<text text-anchor="middle" x="300.07" y="-437.2" font-family="Times,serif" font-size="11.00">Have majority</text>
</g>
<!-- check_lock_status_on_all_servers&#45;&gt;have_majority -->
<g id="edge2" class="edge">
<title>check_lock_status_on_all_servers&#45;&gt;have_majority</title>
<path fill="none" stroke="black" d="M300.07,-494.81C300.07,-486.79 300.07,-477.05 300.07,-468.07"/>
<polygon fill="black" stroke="black" points="303.57,-468.03 300.07,-458.03 296.57,-468.03 303.57,-468.03"/>
</g>
<!-- release_all_acquired_locks -->
<g id="node3" class="node">
<title>release_all_acquired_locks</title>
<polygon fill="none" stroke="black" points="303.57,-109 138.57,-109 138.57,-73 303.57,-73 303.57,-109"/>
<text text-anchor="middle" x="221.07" y="-88.2" font-family="Times,serif" font-size="11.00">Release all acquired locks</text>
</g>
<!-- continue_as_secondary_maxscale -->
<g id="node10" class="node">
<title>continue_as_secondary_maxscale</title>
<ellipse fill="none" stroke="black" cx="122.07" cy="-18" rx="122.14" ry="18"/>
<text text-anchor="middle" x="122.07" y="-15.2" font-family="Times,serif" font-size="11.00">Continue as secondary MaxScale</text>
</g>
<!-- release_all_acquired_locks&#45;&gt;continue_as_secondary_maxscale -->
<g id="edge11" class="edge">
<title>release_all_acquired_locks&#45;&gt;continue_as_secondary_maxscale</title>
<path fill="none" stroke="black" d="M197.36,-72.99C184.38,-63.68 168.12,-52.02 154.03,-41.92"/>
<polygon fill="black" stroke="black" points="155.76,-38.85 145.59,-35.87 151.68,-44.54 155.76,-38.85"/>
</g>
<!-- can_get_majority -->
<g id="node5" class="node">
<title>can_get_majority</title>
<polygon fill="none" stroke="black" points="238.07,-374 143.78,-356 238.07,-338 332.36,-356 238.07,-374"/>
<text text-anchor="middle" x="238.07" y="-353.2" font-family="Times,serif" font-size="11.00">Can get majority</text>
</g>
<!-- have_majority&#45;&gt;can_get_majority -->
<g id="edge3" class="edge">
<title>have_majority&#45;&gt;can_get_majority</title>
<path fill="none" stroke="black" d="M288.99,-424.34C279.76,-412.13 266.44,-394.52 255.74,-380.37"/>
<polygon fill="black" stroke="black" points="258.3,-377.95 249.48,-372.09 252.72,-382.18 258.3,-377.95"/>
<text text-anchor="middle" x="281.57" y="-395.2" font-family="Times,serif" font-size="11.00">No</text>
</g>
<!-- acquire_any_remaining_free_locks -->
<g id="node8" class="node">
<title>acquire_any_remaining_free_locks</title>
<polygon fill="none" stroke="black" points="486.57,-320 283.57,-320 283.57,-284 486.57,-284 486.57,-320"/>
<text text-anchor="middle" x="385.07" y="-299.2" font-family="Times,serif" font-size="11.00">Acquire any remaining free locks</text>
</g>
<!-- have_majority&#45;&gt;acquire_any_remaining_free_locks -->
<g id="edge4" class="edge">
<title>have_majority&#45;&gt;acquire_any_remaining_free_locks</title>
<path fill="none" stroke="black" d="M309.55,-424.05C317.88,-410.89 330.32,-391.2 341.07,-374 350.38,-359.11 360.72,-342.43 369.04,-328.98"/>
<polygon fill="black" stroke="black" points="372.16,-330.59 374.44,-320.24 366.21,-326.91 372.16,-330.59"/>
<text text-anchor="middle" x="338.57" y="-395.2" font-family="Times,serif" font-size="11.00">Yes</text>
</g>
<!-- acquire_all_free_locks -->
<g id="node6" class="node">
<title>acquire_all_free_locks</title>
<polygon fill="none" stroke="black" points="306.57,-266 169.57,-266 169.57,-230 306.57,-230 306.57,-266"/>
<text text-anchor="middle" x="238.07" y="-245.2" font-family="Times,serif" font-size="11.00">Acquire all free locks</text>
</g>
<!-- can_get_majority&#45;&gt;acquire_all_free_locks -->
<g id="edge7" class="edge">
<title>can_get_majority&#45;&gt;acquire_all_free_locks</title>
<path fill="none" stroke="black" d="M238.07,-337.97C238.07,-321.38 238.07,-295.88 238.07,-276.43"/>
<polygon fill="black" stroke="black" points="241.57,-276.34 238.07,-266.34 234.57,-276.34 241.57,-276.34"/>
<text text-anchor="middle" x="247.57" y="-299.2" font-family="Times,serif" font-size="11.00">Yes</text>
</g>
<!-- can_get_majority&#45;&gt;continue_as_secondary_maxscale -->
<g id="edge6" class="edge">
<title>can_get_majority&#45;&gt;continue_as_secondary_maxscale</title>
<path fill="none" stroke="black" d="M205.44,-344.15C167.52,-329.24 110.07,-298.48 110.07,-249 110.07,-249 110.07,-249 110.07,-90 110.07,-75.3 112.6,-59.13 115.34,-45.94"/>
<polygon fill="black" stroke="black" points="118.78,-46.6 117.53,-36.08 111.94,-45.08 118.78,-46.6"/>
<text text-anchor="middle" x="118.57" y="-172.2" font-family="Times,serif" font-size="11.00">No</text>
</g>
<!-- got_majority -->
<g id="node7" class="node">
<title>got_majority</title>
<polygon fill="none" stroke="black" points="238.07,-193 163.4,-175 238.07,-157 312.75,-175 238.07,-193"/>
<text text-anchor="middle" x="238.07" y="-172.2" font-family="Times,serif" font-size="11.00">Got majority</text>
</g>
<!-- acquire_all_free_locks&#45;&gt;got_majority -->
<g id="edge8" class="edge">
<title>acquire_all_free_locks&#45;&gt;got_majority</title>
<path fill="none" stroke="black" d="M238.07,-229.81C238.07,-221.79 238.07,-212.05 238.07,-203.07"/>
<polygon fill="black" stroke="black" points="241.57,-203.03 238.07,-193.03 234.57,-203.03 241.57,-203.03"/>
</g>
<!-- got_majority&#45;&gt;release_all_acquired_locks -->
<g id="edge10" class="edge">
<title>got_majority&#45;&gt;release_all_acquired_locks</title>
<path fill="none" stroke="black" d="M234.71,-157.8C232.43,-146.79 229.35,-131.95 226.7,-119.15"/>
<polygon fill="black" stroke="black" points="230.06,-118.1 224.6,-109.01 223.2,-119.52 230.06,-118.1"/>
<text text-anchor="middle" x="239.57" y="-130.2" font-family="Times,serif" font-size="11.00">No</text>
</g>
<!-- continue_as_primary_maxscale -->
<g id="node9" class="node">
<title>continue_as_primary_maxscale</title>
<ellipse fill="none" stroke="black" cx="436.07" cy="-91" rx="114.01" ry="18"/>
<text text-anchor="middle" x="436.07" y="-88.2" font-family="Times,serif" font-size="11.00">Continue as primary MaxScale</text>
</g>
<!-- got_majority&#45;&gt;continue_as_primary_maxscale -->
<g id="edge9" class="edge">
<title>got_majority&#45;&gt;continue_as_primary_maxscale</title>
<path fill="none" stroke="black" d="M264.36,-163.11C295.78,-150.1 348.98,-128.07 387.85,-111.97"/>
<polygon fill="black" stroke="black" points="389.51,-115.07 397.41,-108.01 386.83,-108.61 389.51,-115.07"/>
<text text-anchor="middle" x="358.57" y="-130.2" font-family="Times,serif" font-size="11.00">Yes</text>
</g>
<!-- acquire_any_remaining_free_locks&#45;&gt;continue_as_primary_maxscale -->
<g id="edge5" class="edge">
<title>acquire_any_remaining_free_locks&#45;&gt;continue_as_primary_maxscale</title>
<path fill="none" stroke="black" d="M389.25,-283.9C398.1,-247.6 418.84,-162.62 429.49,-118.96"/>
<polygon fill="black" stroke="black" points="432.94,-119.59 431.91,-109.05 426.14,-117.93 432.94,-119.59"/>
</g>
</g>
</svg>
